<svg width="14" height="13" viewBox="0 0 14 13" fill="none" xmlns="http://www.w3.org/2000/svg">
<path d="M9.92819 0.454385L8.60331 1.6273L12.1619 4.77771L13.4867 3.60479C14.1711 2.99894 14.1711 2.01747 13.4867 1.41162L12.4082 0.454385C11.7239 -0.151462 10.6153 -0.151462 9.93092 0.454385H9.92819ZM7.98467 2.17499L1.6039 7.82633C1.31921 8.07836 1.11118 8.39098 0.996207 8.73267L0.0271838 11.648C-0.04125 11.854 0.0217091 12.0745 0.191425 12.2248C0.361141 12.375 0.61024 12.4308 0.840177 12.3726L4.13321 11.5147C4.51918 11.4129 4.8723 11.2288 5.15698 10.9767L11.5432 5.32539L7.98467 2.17499Z" fill="white"/>
</svg>
