<svg width="436" height="238" viewBox="0 0 436 238" fill="none" xmlns="http://www.w3.org/2000/svg">
<g clip-path="url(#clip0_4_332)">
<path d="M105.603 214.529L106.088 204.942C111.142 202.567 116.779 201.312 122.509 201.287C114.622 206.957 115.608 217.888 110.261 225.514C108.573 227.881 106.3 229.883 103.612 231.373C100.924 232.863 97.8889 233.802 94.7322 234.12L88.1323 237.673C87.2267 233.233 87.4263 228.673 88.7175 224.308C90.0087 219.942 92.3608 215.875 95.6116 212.386C97.4573 210.444 99.5737 208.715 101.911 207.238C103.492 210.904 105.603 214.529 105.603 214.529Z" fill="#F2F2F2"/>
<path d="M387.218 15.6192H79.977C79.848 15.6167 79.7253 15.5699 79.6351 15.4888C79.5449 15.4077 79.4944 15.2988 79.4944 15.1853C79.4944 15.0719 79.5449 14.9629 79.6351 14.8819C79.7253 14.8008 79.848 14.754 79.977 14.7515H387.218C387.347 14.754 387.47 14.8008 387.56 14.8819C387.65 14.9629 387.701 15.0719 387.701 15.1853C387.701 15.2988 387.65 15.4077 387.56 15.4888C387.47 15.5699 387.347 15.6167 387.218 15.6192Z" fill="#CACACA"/>
<path d="M90.8391 9.54504C93.7709 9.54504 96.1476 7.40831 96.1476 4.77252C96.1476 2.13673 93.7709 0 90.8391 0C87.9072 0 85.5305 2.13673 85.5305 4.77252C85.5305 7.40831 87.9072 9.54504 90.8391 9.54504Z" fill="#3F3D56"/>
<path d="M109.178 9.54504C112.11 9.54504 114.486 7.40831 114.486 4.77252C114.486 2.13673 112.11 0 109.178 0C106.246 0 103.869 2.13673 103.869 4.77252C103.869 7.40831 106.246 9.54504 109.178 9.54504Z" fill="#3F3D56"/>
<path d="M127.516 9.54504C130.448 9.54504 132.825 7.40831 132.825 4.77252C132.825 2.13673 130.448 0 127.516 0C124.584 0 122.208 2.13673 122.208 4.77252C122.208 7.40831 124.584 9.54504 127.516 9.54504Z" fill="#3F3D56"/>
<path d="M376.228 1.18286H363.202C362.943 1.18737 362.698 1.28074 362.517 1.44293C362.336 1.60511 362.235 1.82318 362.235 2.0503C362.235 2.27742 362.336 2.49548 362.517 2.65767C362.698 2.81985 362.943 2.91322 363.202 2.91773H376.228C376.487 2.91322 376.733 2.81985 376.913 2.65767C377.094 2.49548 377.195 2.27742 377.195 2.0503C377.195 1.82318 377.094 1.60511 376.913 1.44293C376.733 1.28074 376.487 1.18737 376.228 1.18286Z" fill="#3F3D56"/>
<path d="M376.228 4.43896H363.202C362.943 4.44347 362.698 4.53684 362.517 4.69903C362.336 4.86121 362.235 5.07928 362.235 5.3064C362.235 5.53352 362.336 5.75158 362.517 5.91377C362.698 6.07595 362.943 6.16933 363.202 6.17383H376.228C376.487 6.16933 376.733 6.07595 376.913 5.91377C377.094 5.75158 377.195 5.53352 377.195 5.3064C377.195 5.07928 377.094 4.86121 376.913 4.69903C376.733 4.53684 376.487 4.44347 376.228 4.43896Z" fill="#3F3D56"/>
<path d="M376.228 7.6908H363.202C362.943 7.6953 362.698 7.78867 362.517 7.95085C362.336 8.11304 362.235 8.33111 362.235 8.55823C362.235 8.78535 362.336 9.00342 362.517 9.1656C362.698 9.32779 362.943 9.42116 363.202 9.42567H376.228C376.487 9.42116 376.733 9.32779 376.913 9.1656C377.094 9.00342 377.195 8.78535 377.195 8.55823C377.195 8.33111 377.094 8.11304 376.913 7.95085C376.733 7.78867 376.487 7.6953 376.228 7.6908Z" fill="#3F3D56"/>
<path d="M319.092 49.6282H108.21C107.171 49.6282 106.174 49.991 105.439 50.6367C104.704 51.2825 104.29 52.1585 104.289 53.0723V140.615C104.29 141.529 104.703 142.406 105.438 143.052C106.174 143.699 107.17 144.062 108.21 144.063H319.092C320.131 144.061 321.126 143.697 321.86 143.051C322.595 142.404 323.007 141.528 323.008 140.615V53.0723C323.007 52.1591 322.594 51.2837 321.86 50.638C321.126 49.9923 320.13 49.6291 319.092 49.6282Z" fill="#3F3D56"/>
<path d="M263.389 91.8035C262.351 91.8044 261.355 92.1676 260.621 92.8133C259.887 93.4589 259.474 94.3344 259.473 95.2476V119.976C259.474 120.889 259.887 121.765 260.621 122.412C261.355 123.058 262.35 123.422 263.389 123.424H323.008V91.8035H263.389Z" fill="#B51D44"/>
<path opacity="0.5" d="M423.255 123.423H263.391C262.352 123.422 261.356 123.058 260.621 122.412C259.886 121.766 259.473 120.89 259.472 119.976V95.2485C259.473 94.3346 259.886 93.4585 260.621 92.8124C261.356 92.1662 262.352 91.8028 263.391 91.8018H423.255C424.294 91.8028 425.29 92.1662 426.025 92.8124C426.76 93.4585 427.173 94.3346 427.174 95.2485V119.976C427.173 120.89 426.76 121.766 426.025 122.412C425.29 123.058 424.294 123.422 423.255 123.423Z" fill="#B51D44"/>
<path d="M285.01 114.786C288.523 114.786 291.37 112.282 291.37 109.193C291.37 106.104 288.523 103.6 285.01 103.6C281.498 103.6 278.65 106.104 278.65 109.193C278.65 112.282 281.498 114.786 285.01 114.786Z" fill="white"/>
<path d="M418.302 107.568H303.381C302.879 107.568 302.397 107.392 302.042 107.08C301.687 106.768 301.487 106.344 301.487 105.902C301.487 105.46 301.687 105.037 302.042 104.725C302.397 104.412 302.879 104.237 303.381 104.237H418.302C418.804 104.237 419.286 104.412 419.641 104.725C419.996 105.037 420.195 105.46 420.195 105.902C420.195 106.344 419.996 106.768 419.641 107.08C419.286 107.392 418.804 107.568 418.302 107.568Z" fill="white"/>
<path d="M374.654 114.149H303.381C302.879 114.149 302.397 113.974 302.042 113.661C301.687 113.349 301.487 112.925 301.487 112.483C301.487 112.042 301.687 111.618 302.042 111.306C302.397 110.993 302.879 110.818 303.381 110.818H374.654C375.156 110.818 375.638 110.993 375.993 111.306C376.348 111.618 376.548 112.042 376.548 112.483C376.548 112.925 376.348 113.349 375.993 113.661C375.638 113.974 375.156 114.149 374.654 114.149Z" fill="white"/>
<path d="M73.567 233.112L79.0712 233.112L81.6897 214.442H73.566L73.567 233.112Z" fill="#FFB6B6"/>
<path d="M72.1631 231.532L73.7123 231.532L79.7609 229.369L83.0027 231.532C84.8348 231.532 86.5922 232.172 87.8876 233.311C89.1831 234.45 89.9109 235.995 89.911 237.606V237.804L72.1634 237.804L72.1631 231.532Z" fill="#2F2E41"/>
<path d="M23.8335 226.819L28.76 228.978L40.5739 213.296L33.3035 210.109L23.8335 226.819Z" fill="#FFB6B6"/>
<path d="M23.3787 224.854L24.7653 225.461L31.276 225.898L33.0803 229.106C34.7198 229.825 35.968 231.087 36.5496 232.615C37.1311 234.143 36.9987 235.811 36.1816 237.253L36.0814 237.43L20.1973 230.468L23.3787 224.854Z" fill="#2F2E41"/>
<path d="M76.0058 148.317L41.0089 149.12L41.6175 164.107C41.6175 164.107 41.0089 168.122 42.2262 169.192C43.4435 170.263 44.0521 170.263 43.4435 172.136C42.8348 174.009 41.2613 191.909 41.2613 191.909C41.2613 191.909 26.8976 214.245 27.5063 214.78C28.1149 215.315 28.7235 214.78 28.1149 216.118C27.5063 217.456 26.8976 216.921 27.5063 217.456C28.0454 217.967 28.5533 218.503 29.0279 219.062H38.9476C38.9476 219.062 39.5023 216.386 39.5023 216.118C39.5023 215.85 40.111 214.245 40.111 213.977C40.111 213.709 57.4422 197.561 57.4422 197.561L61.0941 170.798L69.9193 197.026C69.9193 197.026 69.9194 220.042 70.528 220.577C71.1366 221.112 71.1366 220.844 70.8323 221.915C70.528 222.986 69.3107 222.718 70.2237 223.521C71.1366 224.324 71.441 222.986 71.1366 224.324L70.8323 225.662L82.5241 225.777C82.5241 225.777 83.7414 223.521 83.1327 222.718C82.5241 221.915 82.5606 222.134 83.3031 220.82C84.0457 219.506 84.35 219.239 84.0457 218.971C83.7414 218.703 83.7414 217.28 83.7414 217.28C83.7414 217.28 79.3533 164.642 79.3533 163.84C79.3304 163.426 79.4169 163.014 79.6061 162.636V161.546L78.4403 157.684L76.0058 148.317Z" fill="#2F2E41"/>
<path d="M422.571 101.848C419.915 101.848 417.319 101.155 415.11 99.8576C412.902 98.5599 411.18 96.7154 410.164 94.5574C409.148 92.3995 408.882 90.0249 409.4 87.734C409.918 85.4431 411.197 83.3387 413.075 81.6871C414.953 80.0354 417.346 78.9106 419.951 78.455C422.556 77.9993 425.256 78.2331 427.71 79.127C430.164 80.0209 432.261 81.5346 433.737 83.4767C435.212 85.4188 436 87.7022 436 90.038C436 93.1702 434.585 96.1741 432.067 98.3889C429.548 100.604 426.133 101.848 422.571 101.848Z" fill="#B51D44"/>
<path d="M427.87 88.8731H423.896V85.3781C423.896 85.0692 423.756 84.7728 423.508 84.5544C423.259 84.3359 422.922 84.2131 422.571 84.2131C422.22 84.2131 421.883 84.3359 421.634 84.5544C421.386 84.7728 421.246 85.0692 421.246 85.3781V88.8731H417.272C417.098 88.8728 416.925 88.9027 416.764 88.9611C416.603 89.0195 416.457 89.1053 416.334 89.2135C416.21 89.3217 416.113 89.4502 416.046 89.5917C415.979 89.7332 415.945 89.8849 415.945 90.038C415.945 90.1912 415.979 90.3429 416.046 90.4844C416.113 90.6259 416.21 90.7544 416.334 90.8626C416.457 90.9708 416.603 91.0566 416.764 91.115C416.925 91.1734 417.098 91.2033 417.272 91.203H421.246V94.698C421.246 95.0069 421.386 95.3033 421.634 95.5217C421.883 95.7402 422.22 95.863 422.571 95.863C422.922 95.863 423.259 95.7402 423.508 95.5217C423.756 95.3033 423.896 95.0069 423.896 94.698V91.203H427.87C428.221 91.203 428.558 91.0803 428.806 90.8618C429.055 90.6433 429.194 90.347 429.194 90.038C429.194 89.7291 429.055 89.4328 428.806 89.2143C428.558 88.9958 428.221 88.8731 427.87 88.8731Z" fill="white"/>
<path d="M217.623 123.582H166.599C165.56 123.583 164.563 123.947 163.828 124.594C163.093 125.24 162.679 126.117 162.678 127.031V144.063H221.539V127.031C221.538 126.117 221.126 125.241 220.392 124.595C219.657 123.948 218.662 123.584 217.623 123.582Z" fill="#B51D44"/>
<path opacity="0.5" d="M217.621 171.441H166.598C165.559 171.44 164.562 171.076 163.828 170.43C163.093 169.784 162.68 168.908 162.678 167.994V127.029C162.68 126.115 163.093 125.239 163.828 124.593C164.562 123.947 165.559 123.583 166.598 123.582H217.621C218.66 123.583 219.657 123.947 220.391 124.593C221.126 125.239 221.54 126.115 221.541 127.029V167.994C221.54 168.908 221.126 169.784 220.391 170.43C219.657 171.076 218.66 171.44 217.621 171.441Z" fill="#B51D44"/>
<path d="M181.631 143C185.143 143 187.991 140.495 187.991 137.406C187.991 134.317 185.143 131.813 181.631 131.813C178.118 131.813 175.271 134.317 175.271 137.406C175.271 140.495 178.118 143 181.631 143Z" fill="white"/>
<path d="M207.054 151.501H177.165C176.662 151.501 176.18 151.325 175.825 151.013C175.47 150.701 175.271 150.277 175.271 149.835C175.271 149.394 175.47 148.97 175.825 148.658C176.18 148.345 176.662 148.17 177.165 148.17H207.054C207.556 148.17 208.038 148.345 208.393 148.658C208.748 148.97 208.948 149.394 208.948 149.835C208.948 150.277 208.748 150.701 208.393 151.013C208.038 151.325 207.556 151.501 207.054 151.501Z" fill="white"/>
<path d="M191.588 158.082H177.165C176.662 158.082 176.18 157.907 175.825 157.594C175.47 157.282 175.271 156.858 175.271 156.417C175.271 155.975 175.47 155.551 175.825 155.239C176.18 154.926 176.662 154.751 177.165 154.751H191.588C192.09 154.751 192.572 154.926 192.927 155.239C193.282 155.551 193.482 155.975 193.482 156.417C193.482 156.858 193.282 157.282 192.927 157.594C192.572 157.907 192.09 158.082 191.588 158.082Z" fill="white"/>
<path d="M165.534 183.464C162.878 183.464 160.282 182.771 158.073 181.473C155.865 180.176 154.144 178.331 153.127 176.173C152.111 174.015 151.845 171.641 152.363 169.35C152.881 167.059 154.16 164.955 156.038 163.303C157.916 161.651 160.309 160.526 162.914 160.071C165.519 159.615 168.219 159.849 170.673 160.743C173.127 161.637 175.224 163.15 176.7 165.093C178.175 167.035 178.963 169.318 178.963 171.654C178.963 174.786 177.548 177.79 175.03 180.005C172.511 182.22 169.096 183.464 165.534 183.464Z" fill="#B51D44"/>
<path d="M170.833 170.489H166.859V166.994C166.859 166.685 166.719 166.389 166.471 166.17C166.222 165.952 165.885 165.829 165.534 165.829C165.183 165.829 164.846 165.952 164.597 166.17C164.349 166.389 164.209 166.685 164.209 166.994V170.489H160.235C160.061 170.489 159.888 170.519 159.727 170.577C159.566 170.635 159.42 170.721 159.297 170.829C159.174 170.938 159.076 171.066 159.009 171.208C158.942 171.349 158.908 171.501 158.908 171.654C158.908 171.807 158.942 171.959 159.009 172.1C159.076 172.242 159.174 172.37 159.297 172.478C159.42 172.587 159.566 172.672 159.727 172.731C159.888 172.789 160.061 172.819 160.235 172.819H164.209V176.314C164.209 176.623 164.349 176.919 164.597 177.138C164.846 177.356 165.183 177.479 165.534 177.479C165.885 177.479 166.222 177.356 166.471 177.138C166.719 176.919 166.859 176.623 166.859 176.314V172.819H170.833C171.184 172.819 171.521 172.696 171.769 172.478C172.018 172.259 172.157 171.963 172.157 171.654C172.157 171.345 172.018 171.049 171.769 170.83C171.521 170.612 171.184 170.489 170.833 170.489Z" fill="white"/>
<path d="M159.318 97.5401H108.294C107.255 97.5391 106.259 97.1756 105.524 96.5294C104.789 95.8833 104.376 95.0071 104.375 94.0933V53.1283C104.376 52.2145 104.789 51.3384 105.524 50.6923C106.259 50.0461 107.255 49.6827 108.294 49.6816H159.318C160.357 49.6827 161.353 50.0461 162.088 50.6923C162.823 51.3384 163.236 52.2145 163.237 53.1283V94.0933C163.236 95.0071 162.823 95.8833 162.088 96.5294C161.353 97.1756 160.357 97.5391 159.318 97.5401Z" fill="#B51D44"/>
<path d="M123.327 72.5173C126.84 72.5173 129.687 70.0132 129.687 66.9241C129.687 63.8351 126.84 61.3309 123.327 61.3309C119.815 61.3309 116.967 63.8351 116.967 66.9241C116.967 70.0132 119.815 72.5173 123.327 72.5173Z" fill="#B51D44"/>
<path d="M148.751 79.3094H118.861C118.359 79.3094 117.877 79.1339 117.522 78.8215C117.167 78.5092 116.967 78.0855 116.967 77.6438C116.967 77.2021 117.167 76.7784 117.522 76.4661C117.877 76.1538 118.359 75.9783 118.861 75.9783H148.751C149.253 75.9783 149.735 76.1538 150.09 76.4661C150.445 76.7784 150.644 77.2021 150.644 77.6438C150.644 78.0855 150.445 78.5092 150.09 78.8215C149.735 79.1339 149.253 79.3094 148.751 79.3094Z" fill="#B51D44"/>
<path d="M133.284 85.8908H118.861C118.359 85.8908 117.877 85.7153 117.522 85.403C117.167 85.0906 116.967 84.6669 116.967 84.2252C116.967 83.7834 117.167 83.3598 117.522 83.0474C117.877 82.735 118.359 82.5596 118.861 82.5596H133.284C133.787 82.5596 134.268 82.735 134.624 83.0474C134.979 83.3598 135.178 83.7834 135.178 84.2252C135.178 84.6669 134.979 85.0906 134.624 85.403C134.268 85.7153 133.787 85.8908 133.284 85.8908Z" fill="#B51D44"/>
<path opacity="0.5" d="M159.318 97.5401H108.294C107.255 97.5391 106.259 97.1756 105.524 96.5294C104.789 95.8833 104.376 95.0071 104.375 94.0933V53.1283C104.376 52.2145 104.789 51.3384 105.524 50.6923C106.259 50.0461 107.255 49.6827 108.294 49.6816H159.318C160.357 49.6827 161.353 50.0461 162.088 50.6923C162.823 51.3384 163.236 52.2145 163.237 53.1283V94.0933C163.236 95.0071 162.823 95.8833 162.088 96.5294C161.353 97.1756 160.357 97.5391 159.318 97.5401Z" fill="#B51D44"/>
<path d="M123.327 72.5173C126.84 72.5173 129.687 70.0132 129.687 66.9241C129.687 63.8351 126.84 61.3309 123.327 61.3309C119.815 61.3309 116.967 63.8351 116.967 66.9241C116.967 70.0132 119.815 72.5173 123.327 72.5173Z" fill="white"/>
<path d="M148.751 79.3094H118.861C118.359 79.3094 117.877 79.1339 117.522 78.8215C117.167 78.5092 116.967 78.0855 116.967 77.6438C116.967 77.2021 117.167 76.7784 117.522 76.4661C117.877 76.1538 118.359 75.9783 118.861 75.9783H148.751C149.253 75.9783 149.735 76.1538 150.09 76.4661C150.445 76.7784 150.644 77.2021 150.644 77.6438C150.644 78.0855 150.445 78.5092 150.09 78.8215C149.735 79.1339 149.253 79.3094 148.751 79.3094Z" fill="white"/>
<path d="M133.284 85.8908H118.861C118.359 85.8908 117.877 85.7153 117.522 85.403C117.167 85.0906 116.967 84.6669 116.967 84.2252C116.967 83.7834 117.167 83.3598 117.522 83.0474C117.877 82.735 118.359 82.5596 118.861 82.5596H133.284C133.787 82.5596 134.268 82.735 134.624 83.0474C134.979 83.3598 135.178 83.7834 135.178 84.2252C135.178 84.6669 134.979 85.0906 134.624 85.403C134.268 85.7153 133.787 85.8908 133.284 85.8908Z" fill="white"/>
<path d="M109.347 58.5204C114.982 58.5204 119.551 54.5029 119.551 49.547C119.551 44.591 114.982 40.5735 109.347 40.5735C103.711 40.5735 99.1431 44.591 99.1431 49.547C99.1431 54.5029 103.711 58.5204 109.347 58.5204Z" fill="#FF6584"/>
<path d="M137.347 237.491C137.347 237.558 137.333 237.624 137.304 237.686C137.275 237.748 137.232 237.804 137.178 237.851C137.125 237.899 137.061 237.936 136.99 237.962C136.92 237.987 136.845 238 136.769 238H0.578213C0.424862 238 0.277789 237.946 0.169353 237.851C0.0609178 237.756 0 237.626 0 237.491C0 237.357 0.0609178 237.227 0.169353 237.132C0.277789 237.036 0.424862 236.983 0.578213 236.983H136.769C136.845 236.983 136.92 236.996 136.99 237.021C137.061 237.047 137.125 237.084 137.178 237.131C137.232 237.179 137.275 237.235 137.304 237.297C137.333 237.358 137.347 237.425 137.347 237.491Z" fill="#CCCCCC"/>
<path d="M107.166 73.3159C107.585 74.3473 107.527 75.4824 107.004 76.4764C106.48 77.4704 105.534 78.2437 104.368 78.6295C104.11 78.7142 103.844 78.7787 103.573 78.8221L100.878 93.3333L94.5568 88.2002L98.085 75.2071C97.9544 74.1123 98.319 73.0162 99.1 72.1559C99.881 71.2955 101.016 70.7401 102.259 70.6096C103.304 70.5041 104.36 70.7146 105.252 71.2064C106.143 71.6982 106.818 72.4421 107.166 73.3159Z" fill="#FFB6B6"/>
<path d="M60.5132 106.196C60.5132 106.196 65.4195 100.496 83.2232 100.652L93.3287 97.4228L95.6382 78.8049L103.721 80.4975L102.567 103.516L85.2455 112.317L62.5354 116.379L60.5132 106.196Z" fill="#3F3D56"/>
<path d="M57.9064 94.3198C63.7424 94.3198 68.4733 90.1592 68.4733 85.0269C68.4733 79.8946 63.7424 75.734 57.9064 75.734C52.0705 75.734 47.3395 79.8946 47.3395 85.0269C47.3395 90.1592 52.0705 94.3198 57.9064 94.3198Z" fill="#FFB6B6"/>
<path d="M40.0216 155.488C40.0029 155.488 39.9842 155.486 39.9662 155.481C39.7711 155.433 39.617 155.396 40.321 150.042L41.0809 145.81L40.3391 142.073L39.0913 140.976L41.0967 139.213L42.7795 135.009L39.8677 131.214L36.5269 115.696C35.9526 113.018 36.3989 110.248 37.7966 107.817C39.1944 105.385 41.4655 103.426 44.2578 102.245L48.1244 101.251L49.5312 98.9823C49.9263 98.3452 50.508 97.8126 51.216 97.4398C51.924 97.0669 52.7325 96.8675 53.5577 96.862L60.6384 96.8154C61.3528 96.8107 62.0587 96.9516 62.7008 97.227C63.3429 97.5025 63.9037 97.9049 64.3393 98.4029L66.8096 101.227L77.0534 104.287L75.355 136.473C75.6248 136.671 75.8448 136.917 76.0011 137.194C76.1573 137.471 76.2465 137.774 76.2629 138.083C76.2793 138.392 76.2226 138.701 76.0963 138.99C75.9701 139.278 75.7771 139.541 75.5295 139.761C75.423 139.855 75.3383 139.932 75.2862 139.983C75.1135 140.199 75.4375 141.81 75.8376 143.177L76.3507 145.272C76.1861 145.375 76.0476 145.508 75.9441 145.661C75.8405 145.814 75.7741 145.984 75.7491 146.16C75.7241 146.337 75.741 146.516 75.7988 146.687C75.8565 146.857 75.9538 147.016 76.0846 147.151L76.7388 147.831C76.8682 148.683 76.6079 149.546 76.0152 150.229C75.4224 150.913 74.5456 151.362 73.5769 151.478C64.215 152.599 40.0705 155.488 40.0216 155.488Z" fill="#3F3D56"/>
<path d="M55.2032 93.8648C55.158 93.7774 55.113 93.6897 55.0681 93.6017C55.0854 93.6022 55.1025 93.6044 55.1199 93.6048L55.2032 93.8648Z" fill="#2F2E41"/>
<path d="M47.0456 76.1567C47.5473 75.7404 48.1995 75.4924 48.888 75.4561C49.5713 75.4755 50.2642 76.0182 50.1227 76.6064C51.3777 74.6521 53.3755 73.149 55.7652 72.361C58.1549 71.573 60.7838 71.5503 63.1906 72.2971C64.8889 72.824 66.5544 73.8782 66.9445 75.4244C66.9825 75.8303 67.1201 76.2241 67.3479 76.5787C67.5454 76.7683 67.8016 76.903 68.0849 76.9661C68.3683 77.0292 68.6665 77.0181 68.9427 76.9341L68.9595 76.9297C69.0541 76.9013 69.1561 76.8985 69.2525 76.9217C69.3489 76.9449 69.4352 76.993 69.5002 77.0597C69.5651 77.1265 69.6058 77.2088 69.617 77.2962C69.6282 77.3835 69.6093 77.4718 69.5628 77.5495L69.0823 78.3377C69.688 78.4564 70.3174 78.4446 70.9169 78.3034C71.0164 78.2804 71.1217 78.2851 71.2181 78.3168C71.3145 78.3485 71.3974 78.4057 71.4555 78.4804C71.5135 78.5552 71.5438 78.644 71.5422 78.7345C71.5406 78.825 71.5072 78.9129 71.4466 78.9861C70.648 79.9469 69.6054 80.7305 68.4018 81.2746C67.1982 81.8187 65.8668 82.1082 64.5136 82.1201C62.5936 82.1098 60.6539 81.5278 58.7853 81.9161C58.0624 82.0663 57.387 82.357 56.8085 82.7667C56.23 83.1764 55.7632 83.6948 55.4422 84.2839C55.1213 84.873 54.9544 85.5178 54.9537 86.1711C54.9531 86.8243 55.1188 87.4693 55.4387 88.0589C54.8646 87.5067 53.755 87.6375 53.1678 88.1789C52.8974 88.4687 52.6975 88.8042 52.5805 89.1647C52.4636 89.5252 52.432 89.903 52.4878 90.2746C52.6444 91.413 53.0287 92.518 53.6229 93.5387C51.3525 93.4772 49.1582 92.8045 47.3365 91.6113C45.5147 90.4181 44.1533 88.7619 43.436 86.8664C42.7188 84.971 42.6804 82.9277 43.3259 81.0124C43.9714 79.0971 45.2697 77.4022 47.0456 76.1567Z" fill="#2F2E41"/>
<path d="M44.1382 168.816C43.1279 168.175 42.4445 167.211 42.2352 166.131C42.0259 165.051 42.3076 163.942 43.0195 163.043C43.1774 162.845 43.355 162.659 43.5501 162.489L36.4196 149.189L44.9357 150.268L50.4014 162.732C51.2146 163.569 51.6204 164.654 51.5313 165.752C51.4423 166.85 50.8653 167.873 49.9253 168.6C49.1316 169.208 48.1264 169.561 47.0748 169.6C46.0231 169.639 44.9876 169.363 44.1382 168.816Z" fill="#FFB6B6"/>
<path d="M41.9788 161.554L30.6322 139.128L30.5186 121.415L34.0952 111.847C34.5805 110.549 35.3567 109.35 36.378 108.32C37.3993 107.29 38.645 106.451 40.0414 105.852C41.4378 105.253 42.9566 104.906 44.508 104.832C46.0595 104.758 47.6121 104.958 49.0741 105.421L49.1528 105.445L49.1859 105.513C49.318 105.785 52.3179 112.31 43.4197 125.734L41.6289 134.92L47.9126 155.975L41.9788 161.554Z" fill="#3F3D56"/>
</g>
<defs>
<clipPath id="clip0_4_332">
<rect width="436" height="238" fill="white"/>
</clipPath>
</defs>
</svg>
