<svg width="16" height="14" viewBox="0 0 16 14" fill="none" xmlns="http://www.w3.org/2000/svg">
<path d="M8.88889 0.873817C8.88889 0.603089 8.76389 0.348769 8.54722 0.184692C8.33056 0.0206147 8.05 -0.039547 7.78333 0.0260839L2.78611 1.25666C2.19444 1.4016 1.77778 1.92665 1.77778 2.52826V12.2498H0.888889C0.397222 12.2498 0 12.6409 0 13.1249C0 13.6089 0.397222 14 0.888889 14H2.66667H8H8.88889V13.1249V0.873817ZM7.11111 6.99937C7.11111 7.4834 6.81389 7.87445 6.44444 7.87445C6.075 7.87445 5.77778 7.4834 5.77778 6.99937C5.77778 6.51534 6.075 6.12429 6.44444 6.12429C6.81389 6.12429 7.11111 6.51534 7.11111 6.99937ZM9.77778 3.49905H12.4444V13.1249C12.4444 13.6089 12.8417 14 13.3333 14H15.1111C15.6028 14 16 13.6089 16 13.1249C16 12.6409 15.6028 12.2498 15.1111 12.2498H14.2222V3.49905C14.2222 2.53373 13.425 1.7489 12.4444 1.7489H9.77778V3.49905Z" fill="#201849"/>
</svg>
