<svg width="488" height="292" viewBox="0 0 488 292" fill="none" xmlns="http://www.w3.org/2000/svg">
<g clip-path="url(#clip0_1_26)">
<path d="M373.624 288.698C367.376 283.414 363.582 275.068 364.577 266.942C365.572 258.817 371.736 251.347 379.732 249.621C387.728 247.896 396.842 252.672 399.271 260.489C400.607 245.418 402.148 229.715 410.154 216.881C417.403 205.259 429.959 196.944 443.567 195.456C457.175 193.969 471.502 199.587 479.989 210.337C488.476 221.086 490.554 236.714 484.61 249.055C480.231 258.147 472.164 264.913 463.712 270.417C436.4 288.054 403.642 295.226 371.467 290.614L373.624 288.698Z" fill="#F2F2F2"/>
<path d="M466.532 199.899C455.304 209.052 445.004 219.289 435.779 230.462C421.344 247.888 409.662 267.425 401.141 288.394C400.518 289.924 403 290.59 403.616 289.077C417.557 254.998 439.813 224.962 468.347 201.715C469.629 200.671 467.803 198.863 466.532 199.899Z" fill="white"/>
<path d="M157.095 287.262C165.676 280.005 170.889 268.541 169.522 257.381C168.155 246.22 159.688 235.96 148.706 233.59C137.724 231.22 125.205 237.781 121.869 248.518C120.034 227.817 117.918 206.25 106.922 188.621C96.9649 172.659 79.7192 161.238 61.0287 159.195C42.3383 157.152 22.6596 164.869 11.003 179.633C-0.653525 194.398 -3.50758 215.862 4.65636 232.813C10.6705 245.3 21.7505 254.593 33.3597 262.154C70.397 286.274 116.342 296.333 160.059 289.894" fill="#F2F2F2"/>
<path d="M29.4856 165.296C44.9075 177.868 59.0555 191.929 71.725 207.275C84.3964 222.606 95.5523 239.13 105.036 256.616C110.337 266.425 115.099 276.516 119.3 286.845C120.157 288.946 116.748 289.86 115.901 287.783C108.459 269.574 99.2513 252.138 88.4107 235.727C77.6229 219.375 65.2755 204.109 51.5422 190.143C43.7746 182.248 35.5791 174.786 26.9929 167.791C25.2329 166.357 27.7402 163.874 29.4856 165.296Z" fill="white"/>
<path d="M350.294 291.361H145.559V81.1207C145.559 36.3905 181.919 0 226.611 0H269.242C313.934 0 350.294 36.3905 350.294 81.1207V291.361Z" fill="#F2F2F2"/>
<path d="M307.664 291.361H145.559V81.1207C145.514 63.9811 150.937 47.2747 161.038 33.4339C161.41 32.926 161.781 32.4246 162.164 31.9287C167.05 25.5154 172.864 19.8674 179.415 15.1709C179.785 14.9015 180.156 14.6367 180.534 14.3719C186.015 10.5755 191.944 7.47195 198.187 5.132C198.558 4.99138 198.935 4.85048 199.312 4.71533C204.958 2.69887 210.811 1.3176 216.762 0.597029C217.131 0.546588 217.509 0.507117 217.888 0.467646C223.688 -0.152952 229.537 -0.152952 235.336 0.467646C235.714 0.507117 236.092 0.546583 236.466 0.597569C242.415 1.31819 248.266 2.69929 253.91 4.71536C254.288 4.8505 254.665 4.99139 255.037 5.13229C261.203 7.44272 267.062 10.4999 272.485 14.2357C272.862 14.4947 273.239 14.7595 273.611 15.0243C277.283 17.6475 280.732 20.57 283.923 23.7618C286.481 26.3219 288.866 29.0509 291.06 31.9304C291.442 32.4246 291.813 32.926 292.185 33.4331C302.286 47.2741 307.709 63.9808 307.664 81.1207V291.361Z" fill="#CCCCCC"/>
<path d="M294.483 197.328C299.439 197.328 303.457 193.307 303.457 188.346C303.457 183.385 299.439 179.364 294.483 179.364C289.526 179.364 285.508 183.385 285.508 188.346C285.508 193.307 289.526 197.328 294.483 197.328Z" fill="white"/>
<path d="M333.522 285.064H326.645L323.374 258.517L333.523 258.517L333.522 285.064Z" fill="#FFB8B8"/>
<path d="M321.733 283.097H334.995V291.454H313.383C313.383 290.357 313.599 289.27 314.018 288.256C314.438 287.242 315.053 286.321 315.829 285.545C316.604 284.769 317.525 284.153 318.538 283.733C319.551 283.313 320.637 283.097 321.733 283.097Z" fill="#2F2E41"/>
<path d="M367.738 285.064H360.861L357.59 258.517L367.739 258.517L367.738 285.064Z" fill="#FFB8B8"/>
<path d="M355.949 283.097H369.212V291.454H347.599C347.599 290.357 347.815 289.27 348.235 288.256C348.654 287.242 349.269 286.321 350.045 285.545C350.82 284.769 351.741 284.153 352.754 283.733C353.767 283.313 354.853 283.097 355.949 283.097Z" fill="#2F2E41"/>
<path d="M299.025 190.125C298.53 189.396 298.201 188.567 298.061 187.696C297.921 186.826 297.974 185.935 298.215 185.087C298.456 184.239 298.88 183.454 299.457 182.788C300.034 182.122 300.75 181.591 301.555 181.231L324.932 116.746L336.434 123.029L309.743 184.653C310.257 186.046 310.242 187.578 309.702 188.961C309.162 190.343 308.134 191.48 306.813 192.154C305.491 192.829 303.969 192.995 302.534 192.621C301.098 192.247 299.85 191.359 299.025 190.125Z" fill="#FFB8B8"/>
<path d="M364.225 202.242C363.461 201.804 362.802 201.203 362.295 200.482C361.788 199.761 361.445 198.938 361.291 198.07C361.136 197.202 361.173 196.31 361.4 195.458C361.627 194.606 362.037 193.814 362.603 193.139L355.361 124.924L368.451 125.523L371.461 192.621C372.533 193.647 373.191 195.031 373.311 196.51C373.432 197.99 373.005 199.462 372.113 200.648C371.222 201.834 369.926 202.651 368.472 202.945C367.018 203.239 365.507 202.989 364.225 202.242Z" fill="#FFB8B8"/>
<path d="M343.342 104.802C350.951 104.802 357.119 98.6289 357.119 91.0138C357.119 83.3988 350.951 77.2255 343.342 77.2255C335.733 77.2255 329.565 83.3988 329.565 91.0138C329.565 98.6289 335.733 104.802 343.342 104.802Z" fill="#FFB8B8"/>
<path d="M364.138 186.728H322.603L322.653 186.405C322.728 185.921 330.056 137.879 324.651 122.162C324.109 120.617 324.157 118.927 324.785 117.415C325.414 115.904 326.578 114.678 328.056 113.975C335.78 110.334 350.609 105.851 363.124 116.731C364.966 118.358 366.404 120.392 367.325 122.672C368.246 124.951 368.624 127.414 368.43 129.865L364.138 186.728Z" fill="white"/>
<path d="M330.581 144.979L311.881 141.182L320.646 120.394C321.171 118.381 322.472 116.658 324.264 115.603C326.056 114.548 328.193 114.248 330.206 114.768C332.219 115.288 333.944 116.586 335.002 118.377C336.06 120.168 336.365 122.306 335.851 124.322L330.581 144.979Z" fill="white"/>
<path d="M354.529 152.029L353.405 126.238C352.553 121.389 355.326 116.806 359.591 116.057C363.857 115.311 368.022 118.673 368.879 123.557L373.104 147.656L354.529 152.029Z" fill="white"/>
<path d="M362.756 183.641C369.439 209.115 370.168 241.503 368.365 276.831L359.39 275.709L343.123 208.342L334.149 276.831L324.052 276.27C321.036 239.202 318.099 207.379 322.93 186.448L362.756 183.641Z" fill="#2F2E41"/>
<path d="M352.42 101.67C349.85 104.41 345.077 102.939 344.742 99.1956C344.715 98.905 344.717 98.6125 344.747 98.3223C344.92 96.6642 345.877 95.1588 345.648 93.4081C345.596 92.9724 345.434 92.5572 345.177 92.2017C343.129 89.4569 338.321 93.4294 336.388 90.9446C335.203 89.421 336.596 87.0221 335.687 85.3192C334.486 83.0717 330.931 84.1804 328.701 82.9495C326.22 81.58 326.369 77.7706 328.002 75.4535C329.993 72.6277 333.485 71.1198 336.933 70.9025C340.382 70.6852 343.806 71.6181 347.026 72.8738C350.683 74.3005 354.311 76.2722 356.562 79.4912C359.299 83.4058 359.562 88.6687 358.193 93.2462C357.361 96.0307 354.518 99.4323 352.42 101.67Z" fill="#2F2E41"/>
<path d="M471.162 291.722H57.0385C56.8617 291.722 56.6923 291.651 56.5675 291.526C56.4427 291.4 56.3726 291.231 56.3726 291.054C56.3726 290.877 56.4427 290.707 56.5675 290.582C56.6923 290.456 56.8617 290.386 57.0385 290.385H471.162C471.339 290.386 471.508 290.456 471.633 290.582C471.758 290.707 471.828 290.877 471.828 291.054C471.828 291.231 471.758 291.4 471.633 291.526C471.508 291.651 471.339 291.722 471.162 291.722Z" fill="#3F3D56"/>
<path d="M263.071 230.45H190.152C189.192 230.455 188.268 230.079 187.585 229.404C186.901 228.729 186.513 227.81 186.506 226.849V63.9508C186.513 62.9897 186.901 62.0707 187.585 61.3955C188.268 60.7204 189.192 60.3441 190.152 60.3493H263.071C264.032 60.3441 264.955 60.7204 265.638 61.3955C266.322 62.0707 266.71 62.9897 266.717 63.9508V226.849C266.71 227.81 266.322 228.729 265.638 229.404C264.955 230.079 264.032 230.455 263.071 230.45Z" fill="white"/>
<path d="M266.717 113.058H186.506V114.181H266.717V113.058Z" fill="#CCCCCC"/>
<path d="M266.998 177.118H186.786V178.241H266.998V177.118Z" fill="#CCCCCC"/>
<path d="M212.869 60.3493H211.747V231.012H212.869V60.3493Z" fill="#CCCCCC"/>
<path d="M240.915 60.3493H239.793V231.012H240.915V60.3493Z" fill="#CCCCCC"/>
</g>
<defs>
<clipPath id="clip0_1_26">
<rect width="488" height="292" fill="white"/>
</clipPath>
</defs>
</svg>
