<svg width="132" height="23" viewBox="0 0 132 23" fill="none" xmlns="http://www.w3.org/2000/svg">
<path d="M0 0.296875V1.9181L14.8732 1.78151V0.296875H0Z" fill="white"/>
<path d="M0 10.6893V12.3106L14.8732 12.174V10.6893H0Z" fill="white"/>
<path d="M0 21.3788V23L14.8732 22.8634V21.3788H0Z" fill="white"/>
<path d="M48.4868 0V1.62122L63.3601 1.48464V0H48.4868Z" fill="white"/>
<path d="M48.4868 10.3925V12.0137L63.3601 11.8771V10.3925H48.4868Z" fill="white"/>
<path d="M48.4868 21.0818V22.703L63.3601 22.5664V21.0818H48.4868Z" fill="white"/>
<path d="M20.0669 0.296875H21.9647L30.7875 20.6364L40.2291 0.296875H41.9781L31.7989 22.9999H30.2432L20.0669 0.296875Z" fill="white"/>
<path d="M73.5334 22.9999H71.939V0.296875H73.5334L88.7933 20.3395V0.296875H90.242V22.9999H88.7993L73.6226 3.71154L73.5334 22.9999Z" fill="white"/>
<path d="M96.6968 0.296875H114.699V1.81714H106.534V22.9999H104.901V1.63305H96.6968V0.296875Z" fill="white"/>
<path d="M126.039 4.89929H124.489V18.3442H126.039V4.89929Z" fill="white"/>
<path d="M132 10.8468H118.531V12.3938H132V10.8468Z" fill="white"/>
</svg>
