<svg width="18" height="16" viewBox="0 0 18 16" fill="none" xmlns="http://www.w3.org/2000/svg">
<path d="M18 7.42857C18 11.5321 13.9713 14.8571 9.00052 14.8571C7.6963 14.8571 6.45887 14.6286 5.34097 14.2179C4.92263 14.5286 4.24064 14.9536 3.43209 15.3107C2.58839 15.6821 1.57244 16 0.56351 16C0.335008 16 0.131113 15.8607 0.0432276 15.6464C-0.044658 15.4321 0.00455792 15.1893 0.162752 15.025L0.173298 15.0143C0.183844 15.0036 0.197906 14.9893 0.218999 14.9643C0.257668 14.9214 0.31743 14.8536 0.391254 14.7607C0.535387 14.5821 0.728735 14.3179 0.925598 13.9893C1.27714 13.3964 1.61111 12.6179 1.6779 11.7429C0.623272 10.5286 0.0010425 9.03929 0.0010425 7.42857C0.0010425 3.325 4.02972 0 9.00052 0C13.9713 0 18 3.325 18 7.42857Z" fill="#201849"/>
</svg>
