<svg width="436" height="238" viewBox="0 0 436 238" fill="none" xmlns="http://www.w3.org/2000/svg">
<g clip-path="url(#clip0_4_463)">
<path d="M433.925 77.692C427.911 93.7931 410.35 105.064 392.031 114.638C389.474 115.976 386.915 117.282 384.356 118.558C384.338 118.563 384.32 118.576 384.303 118.582C384.18 118.643 384.056 118.704 383.942 118.766C383.413 119.028 382.885 119.291 382.361 119.551L382.649 119.651C382.649 119.651 382.931 119.767 382.622 119.669C382.53 119.64 382.434 119.613 382.342 119.583C371.7 116.271 360.869 112.715 352.714 106.51C344.254 100.067 339.31 89.9609 343.891 81.4964C344.493 80.3876 345.254 79.3342 346.158 78.3556C346.53 77.9452 346.93 77.5525 347.347 77.1671C349.874 74.7871 353.177 72.9695 356.916 71.9011C360.655 70.8327 364.695 70.5521 368.621 71.0881C372.547 71.6241 376.217 72.9575 379.254 74.951C382.291 76.9445 384.585 79.5263 385.901 82.4309C387.247 72.7611 376.914 64.6613 366.971 58.6848C357.023 52.7113 345.72 46.2061 343.796 36.5901C342.722 31.2398 345.133 26.0549 349.525 21.8927C349.661 21.7662 349.797 21.6399 349.937 21.5169C355.283 16.6691 362.802 13.5561 370.993 12.7998C386.247 11.5764 401.063 17.8071 412.145 25.9914C429.98 39.1593 440.763 59.3853 433.925 77.692Z" fill="#F2F2F2"/>
<path d="M405.254 56.6321C408.181 60.1469 410.429 63.9724 411.926 67.9878C413.192 71.5767 413.755 75.2915 413.597 79.0089C413.323 86.65 410.276 94.1168 405.483 100.767C401.774 105.81 397.255 110.471 392.031 114.638C389.474 115.976 386.915 117.282 384.356 118.558C384.338 118.563 384.32 118.576 384.303 118.582C384.18 118.643 384.056 118.704 383.942 118.766C383.413 119.028 382.885 119.291 382.361 119.551C382.361 119.551 382.931 119.767 382.622 119.669C382.53 119.64 382.434 119.613 382.342 119.583C383.296 113.549 382.362 107.426 379.617 101.727C376.873 96.0288 372.399 90.9209 366.57 86.8317C360.726 82.8047 353.733 79.9004 346.158 78.3556C346.53 77.9453 346.93 77.5526 347.347 77.1671C350.272 77.8002 353.119 78.6315 355.855 79.6516C365.633 83.2753 373.64 89.2323 378.69 96.641C383.222 103.368 385.172 110.954 384.312 118.507C384.749 118.201 385.187 117.888 385.612 117.579C393.698 111.761 400.881 105.083 405.742 97.3756C409.959 90.8488 412.032 83.6218 411.777 76.3312C411.381 68.3817 407.276 61.0183 401.333 54.6081C394.968 47.7477 386.987 41.6781 378.464 36.4199C369.735 31.0245 360.183 26.4737 350.021 22.8689C349.792 22.7864 349.613 22.639 349.52 22.4573C349.428 22.2756 349.43 22.0735 349.525 21.8927C349.593 21.7305 349.741 21.5955 349.937 21.517C350.038 21.4834 350.147 21.4679 350.257 21.4715C350.367 21.4751 350.474 21.4977 350.571 21.5378C351.825 21.9835 353.071 22.4353 354.307 22.9066C364.601 26.8331 374.224 31.7312 382.953 37.4884C391.385 43.0358 399.323 49.3737 405.254 56.6321Z" fill="white"/>
<path d="M335.772 169.884C348.092 169.884 358.08 162.177 358.08 152.67C358.08 143.163 348.092 135.455 335.772 135.455C323.452 135.455 313.465 143.163 313.465 152.67C313.465 162.177 323.452 169.884 335.772 169.884Z" fill="#2F2E41"/>
<path d="M318.36 143.388C321.965 140.606 322.695 136.66 319.992 134.574C317.288 132.487 312.174 133.051 308.57 135.833C304.965 138.615 304.234 142.561 306.938 144.647C309.641 146.734 314.755 146.17 318.36 143.388Z" fill="#2F2E41"/>
<path d="M359.022 137.921C360.524 135.208 357.942 131.756 353.253 130.21C348.565 128.665 343.547 129.612 342.045 132.325C340.543 135.038 343.126 138.491 347.814 140.036C352.502 141.582 357.52 140.635 359.022 137.921Z" fill="#2F2E41"/>
<path d="M383.014 226.583C379.181 228.638 375.131 230.44 370.906 231.97L370.281 231.118L364.302 223.02L363.779 222.31L360.72 218.168L360.714 218.163L351.059 205.071L346.095 198.35L360.834 190.374L366.567 199.728L369.676 204.809L382.472 225.692L383.014 226.583Z" fill="#A0616A"/>
<path d="M369.846 194.997L367.998 192.763L359.825 182.869C358.709 180.947 356.651 179.444 354.102 178.69C351.553 177.937 348.721 177.993 346.226 178.848C343.732 179.702 341.777 181.285 340.792 183.249C339.806 185.213 339.869 187.399 340.968 189.327L346.02 203.217C346.162 203.61 346.412 203.975 346.752 204.287C347.093 204.6 347.516 204.852 347.993 205.028C348.471 205.204 348.991 205.298 349.52 205.306C350.049 205.313 350.573 205.233 351.059 205.071C351.078 205.067 351.09 205.062 351.109 205.057L366.567 199.728L368.232 199.153C368.718 198.984 369.151 198.737 369.502 198.427C369.854 198.118 370.115 197.754 370.268 197.36C370.421 196.965 370.463 196.551 370.39 196.143C370.317 195.735 370.132 195.345 369.846 194.997Z" fill="#B51D44"/>
<path d="M325.435 195.309L321.134 202.803L320.2 204.434L304.276 232.194L303.765 233.085C299.453 231.697 295.301 230.03 291.354 228.101L291.783 227.167L304.781 198.866L307.972 191.917L314.96 193.274L325.435 195.309Z" fill="#A0616A"/>
<path d="M353.092 163.787C358.107 156.707 354.735 147.83 345.561 143.96C336.386 140.09 324.883 142.692 319.868 149.771C314.853 156.851 318.224 165.728 327.399 169.599C336.573 173.469 348.077 170.867 353.092 163.787Z" fill="#A0616A"/>
<path d="M369.48 198.448C369.207 196.523 368.711 194.62 367.998 192.763C365.851 187.172 361.746 182.147 356.136 178.241C354.074 176.813 351.401 176.024 348.631 176.026H321.96C320.043 176.023 318.157 176.398 316.482 177.117C314.806 177.835 313.398 178.873 312.39 180.132C311.382 181.39 310.81 182.827 310.726 184.304C310.643 185.782 311.052 187.252 311.914 188.573L314.96 193.274L321.134 202.803L322.616 205.086L329.219 215.282L329.742 216.09L363.262 223.205L363.407 222.957C363.533 222.738 363.659 222.524 363.779 222.309C363.962 221.983 364.145 221.667 364.315 221.346C367.696 215.16 369.291 209.656 369.676 204.809C369.849 202.688 369.783 200.56 369.48 198.448Z" fill="#B51D44"/>
<path d="M326.797 178.693C324.33 177.801 321.505 177.7 318.942 178.412C316.378 179.123 314.284 180.589 313.118 182.49L310.74 185.259L302.794 194.515C302.499 194.859 302.304 195.247 302.221 195.654C302.138 196.061 302.17 196.477 302.314 196.874C302.458 197.271 302.711 197.639 303.057 197.953C303.402 198.268 303.831 198.521 304.314 198.696L304.781 198.866L320.2 204.434L321.298 204.828C321.711 204.978 322.159 205.066 322.616 205.086C323.225 205.123 323.837 205.041 324.394 204.847C324.881 204.679 325.314 204.433 325.666 204.123C326.017 203.814 326.278 203.45 326.431 203.057L331.767 189.279C332.924 187.366 333.051 185.177 332.119 183.193C331.188 181.208 329.273 179.59 326.797 178.693Z" fill="#B51D44"/>
<path d="M364.315 221.346C364.203 221.043 364.021 220.758 363.779 220.504C362.917 219.612 361.886 218.824 360.721 218.168L360.714 218.163C356.659 215.793 348.587 213.024 333.015 212.951H332.99C332.276 212.95 331.578 213.108 330.977 213.406C330.377 213.704 329.9 214.129 329.603 214.63L329.219 215.282L326.74 219.487C326.53 219.849 326.197 220.16 325.775 220.387C323.536 221.609 316.41 226.037 312.727 234.496C312.595 234.798 312.468 235.104 312.349 235.421C328.096 238.971 344.851 238.854 360.512 235.085L360.859 233.98L364.303 223.02L364.36 222.84C364.516 222.348 364.5 221.832 364.315 221.346Z" fill="#2F2E41"/>
<path d="M316.586 147.59C320.913 149.891 326.048 151.115 331.302 151.099C329.428 152.102 327.294 152.78 325.048 153.085C332.034 154.241 339.254 154.273 346.256 153.177C347.812 152.984 349.314 152.586 350.696 152C351.384 151.703 351.984 151.298 352.456 150.811C352.928 150.324 353.262 149.765 353.436 149.172C353.901 147.12 351.83 145.257 349.678 144.001C346.382 142.107 342.582 140.802 338.553 140.181C334.524 139.56 330.366 139.637 326.38 140.408C323.778 140.927 321.171 141.804 319.48 143.417C317.79 145.03 317.289 147.517 318.9 149.177L316.586 147.59Z" fill="#2F2E41"/>
<path d="M342.704 14.8337H0.684814V15.8916H342.704V14.8337Z" fill="#3F3D56"/>
<path d="M12.3368 11.11C14.6081 11.11 16.4493 9.68918 16.4493 7.93648C16.4493 6.18378 14.6081 4.76294 12.3368 4.76294C10.0656 4.76294 8.22437 6.18378 8.22437 7.93648C8.22437 9.68918 10.0656 11.11 12.3368 11.11Z" fill="#3F3D56"/>
<path d="M24.1601 11.11C26.4313 11.11 28.2725 9.68918 28.2725 7.93648C28.2725 6.18378 26.4313 4.76294 24.1601 4.76294C21.8888 4.76294 20.0476 6.18378 20.0476 7.93648C20.0476 9.68918 21.8888 11.11 24.1601 11.11Z" fill="#3F3D56"/>
<path d="M35.9835 11.11C38.2548 11.11 40.096 9.68918 40.096 7.93648C40.096 6.18378 38.2548 4.76294 35.9835 4.76294C33.7123 4.76294 31.8711 6.18378 31.8711 7.93648C31.8711 9.68918 33.7123 11.11 35.9835 11.11Z" fill="#3F3D56"/>
<path d="M268.632 76.2243H74.5143C73.9365 76.2243 73.3645 76.1365 72.8307 75.9659C72.297 75.7953 71.812 75.5452 71.4035 75.23C70.995 74.9147 70.671 74.5405 70.4499 74.1286C70.2288 73.7167 70.115 73.2753 70.115 72.8294C70.115 72.3836 70.2288 71.9422 70.4499 71.5303C70.671 71.1184 70.995 70.7441 71.4035 70.4289C71.812 70.1137 72.297 69.8636 72.8307 69.693C73.3645 69.5224 73.9365 69.4346 74.5143 69.4346H268.632C269.209 69.4346 269.781 69.5224 270.315 69.693C270.849 69.8636 271.334 70.1137 271.742 70.4289C272.151 70.7441 272.475 71.1184 272.696 71.5303C272.917 71.9422 273.031 72.3836 273.031 72.8294C273.031 73.2753 272.917 73.7167 272.696 74.1286C272.475 74.5405 272.151 74.9147 271.742 75.23C271.334 75.5452 270.849 75.7953 270.315 75.9659C269.781 76.1365 269.209 76.2243 268.632 76.2243Z" fill="#CCCCCC"/>
<path d="M268.632 112.719H74.5143C73.9365 112.719 73.3645 112.632 72.8307 112.461C72.297 112.29 71.812 112.04 71.4035 111.725C70.995 111.41 70.671 111.036 70.4499 110.624C70.2288 110.212 70.115 109.77 70.115 109.325C70.115 108.879 70.2288 108.437 70.4499 108.025C70.671 107.614 70.995 107.239 71.4035 106.924C71.812 106.609 72.297 106.359 72.8307 106.188C73.3645 106.017 73.9365 105.93 74.5143 105.93H268.632C269.209 105.93 269.781 106.017 270.315 106.188C270.849 106.359 271.334 106.609 271.742 106.924C272.151 107.239 272.475 107.614 272.696 108.025C272.917 108.437 273.031 108.879 273.031 109.325C273.031 109.77 272.917 110.212 272.696 110.624C272.475 111.036 272.151 111.41 271.742 111.725C271.334 112.04 270.849 112.29 270.315 112.461C269.781 112.632 269.209 112.719 268.632 112.719Z" fill="#E6E6E6"/>
<path d="M268.632 126.723H74.5143C73.3475 126.723 72.2285 126.365 71.4035 125.729C70.5785 125.092 70.115 124.229 70.115 123.328C70.115 122.428 70.5785 121.564 71.4035 120.928C72.2285 120.291 73.3475 119.933 74.5143 119.933H268.632C269.798 119.933 270.917 120.291 271.742 120.928C272.567 121.564 273.031 122.428 273.031 123.328C273.031 124.229 272.567 125.092 271.742 125.729C270.917 126.365 269.798 126.723 268.632 126.723Z" fill="#E6E6E6"/>
<path d="M237.012 61.7961H106.134C104.967 61.7961 103.848 61.4384 103.023 60.8018C102.198 60.1651 101.735 59.3016 101.735 58.4012C101.735 57.5008 102.198 56.6374 103.023 56.0007C103.848 55.364 104.967 55.0063 106.134 55.0063H237.012C238.179 55.0063 239.298 55.364 240.123 56.0007C240.948 56.6374 241.411 57.5008 241.411 58.4012C241.411 59.3016 240.948 60.1651 240.123 60.8018C239.298 61.4384 238.179 61.7961 237.012 61.7961Z" fill="#CCCCCC"/>
<path d="M142.95 98.7155H74.761C74.1828 98.7161 73.6102 98.6287 73.0759 98.4583C72.5415 98.2879 72.0559 98.0379 71.6468 97.7226C71.2378 97.4073 70.9132 97.0329 70.6918 96.6208C70.4704 96.2086 70.3564 95.7668 70.3564 95.3207C70.3564 94.8745 70.4704 94.4327 70.6918 94.0206C70.9132 93.6084 71.2378 93.234 71.6468 92.9187C72.0559 92.6034 72.5415 92.3534 73.0759 92.183C73.6102 92.0127 74.1828 91.9252 74.761 91.9258H142.95C144.116 91.9258 145.235 92.2835 146.06 92.9201C146.885 93.5568 147.349 94.4203 147.349 95.3207C147.349 96.221 146.885 97.0845 146.06 97.7212C145.235 98.3579 144.116 98.7155 142.95 98.7155Z" fill="#E6E6E6"/>
<path d="M268.878 98.7155H200.69C200.112 98.7161 199.539 98.6287 199.005 98.4583C198.47 98.2879 197.985 98.0379 197.576 97.7226C197.167 97.4073 196.842 97.0329 196.621 96.6208C196.399 96.2086 196.285 95.7668 196.285 95.3207C196.285 94.8745 196.399 94.4327 196.621 94.0206C196.842 93.6084 197.167 93.234 197.576 92.9187C197.985 92.6034 198.47 92.3534 199.005 92.183C199.539 92.0127 200.112 91.9252 200.69 91.9258H268.878C269.457 91.9252 270.029 92.0127 270.564 92.183C271.098 92.3534 271.584 92.6034 271.993 92.9187C272.402 93.234 272.726 93.6084 272.948 94.0206C273.169 94.4327 273.283 94.8745 273.283 95.3207C273.283 95.7668 273.169 96.2086 272.948 96.6208C272.726 97.0329 272.402 97.4073 271.993 97.7226C271.584 98.0379 271.098 98.2879 270.564 98.4583C270.029 98.6287 269.457 98.7161 268.878 98.7155Z" fill="#E6E6E6"/>
<path d="M338.59 0H4.7931C3.5214 0.00149296 2.30243 0.39233 1.40379 1.08671C0.505146 1.78109 0.000279209 2.72226 0 3.70362V178.251C0.0016021 179.231 0.507099 180.171 1.40563 180.865C2.30417 181.558 3.52239 181.948 4.7931 181.949H254.403C254.34 181.599 254.29 181.244 254.239 180.893H4.7931C3.8851 180.893 3.01453 180.614 2.37247 180.119C1.73041 179.623 1.36932 178.951 1.36849 178.251V3.70362C1.36908 3.00242 1.72989 2.33 2.37182 1.83373C3.01375 1.33746 3.88445 1.05781 4.7931 1.05609H338.59C339.5 1.05682 340.372 1.33599 341.015 1.83234C341.658 2.32869 342.02 3.00168 342.021 3.70362V110.68C342.475 110.705 342.936 110.734 343.39 110.768V3.70362C343.389 2.72148 342.883 1.77971 341.983 1.08525C341.083 0.390792 339.863 0.000451352 338.59 0Z" fill="#3F3D56"/>
<path d="M254.403 181.949C254.34 181.599 254.29 181.244 254.239 180.893C254.227 180.84 254.22 180.791 254.214 180.737C254.031 179.458 253.899 178.165 253.817 176.859C253.47 177.983 253.157 179.112 252.877 180.246C252.896 180.411 252.915 180.572 252.94 180.737C252.946 180.791 252.953 180.84 252.965 180.893C253.016 181.244 253.066 181.599 253.129 181.949C253.306 183.035 253.52 184.105 253.773 185.171C253.779 185.127 253.785 185.088 253.791 185.045C253.968 184.018 254.17 182.996 254.41 181.974C254.405 181.966 254.402 181.958 254.403 181.949ZM343.39 109.79C342.936 109.756 342.475 109.726 342.021 109.702C341.952 109.697 341.889 109.697 341.819 109.692C339.801 109.575 337.758 109.517 335.702 109.517C324.062 109.52 312.551 111.406 301.914 115.053C291.277 118.701 281.748 124.029 273.944 130.693C266.139 137.358 260.232 145.211 256.604 153.746C252.975 162.282 251.706 171.309 252.877 180.246C252.896 180.411 252.915 180.572 252.94 180.737C252.946 180.791 252.953 180.84 252.965 180.893C253.016 181.244 253.066 181.599 253.129 181.949C253.306 183.035 253.52 184.105 253.773 185.171C256.278 195.738 262.163 205.654 270.893 214.021C279.623 222.388 290.922 228.941 303.765 233.085C305.077 233.503 306.401 233.902 307.745 234.267C308.628 234.515 309.511 234.744 310.406 234.963C311.049 235.124 311.699 235.275 312.349 235.421C313.269 235.63 314.203 235.829 315.142 236.014C326.67 238.296 338.699 238.635 350.411 237.008C362.123 235.38 373.243 231.824 383.014 226.583H383.021C394.102 220.678 403.16 212.787 409.418 203.586C415.676 194.385 418.947 184.15 418.949 173.759C418.949 140.334 385.701 112.792 343.39 109.79ZM382.472 225.692C378.618 227.768 374.54 229.584 370.281 231.118C367.221 232.223 364.074 233.179 360.859 233.98C346.351 237.583 330.829 237.999 316.032 235.182C314.922 234.973 313.82 234.744 312.727 234.496C311.649 234.253 310.581 233.995 309.523 233.722C308.659 233.493 307.795 233.26 306.937 233.012C306.042 232.749 305.159 232.476 304.276 232.194C290.996 227.923 279.401 221.037 270.65 212.224C261.899 203.411 256.299 192.98 254.41 181.974C254.405 181.966 254.402 181.958 254.403 181.949C254.34 181.599 254.29 181.244 254.239 180.893C254.227 180.84 254.22 180.791 254.214 180.737C254.031 179.458 253.899 178.165 253.817 176.859C253.747 175.832 253.714 174.798 253.716 173.759C253.74 156.984 262.385 140.903 277.755 129.041C293.125 117.18 313.965 110.509 335.702 110.49C337.758 110.49 339.801 110.549 341.82 110.666C341.889 110.671 341.952 110.675 342.021 110.68C342.475 110.705 342.936 110.734 343.39 110.768C385.007 113.766 417.688 140.869 417.688 173.759C417.686 183.966 414.482 194.021 408.35 203.065C402.217 212.108 393.338 219.872 382.472 225.692ZM306.937 233.012C306.042 232.749 305.159 232.476 304.276 232.194C290.996 227.923 279.401 221.037 270.65 212.224C261.899 203.411 256.299 192.98 254.41 181.974C254.17 182.996 253.968 184.018 253.791 185.045C253.785 185.088 253.779 185.127 253.773 185.171C256.278 195.738 262.163 205.654 270.893 214.021C279.623 222.388 290.922 228.941 303.765 233.085C305.077 233.503 306.401 233.902 307.745 234.267C307.467 233.853 307.196 233.435 306.937 233.012ZM341.819 109.692C339.801 109.575 337.758 109.517 335.702 109.517C324.062 109.52 312.551 111.406 301.914 115.053C291.277 118.701 281.748 124.029 273.944 130.693C266.139 137.358 260.232 145.211 256.604 153.746C252.975 162.282 251.706 171.309 252.877 180.246C252.896 180.411 252.915 180.572 252.94 180.737C252.946 180.791 252.953 180.84 252.965 180.893H254.239C254.227 180.84 254.22 180.791 254.214 180.737C254.031 179.458 253.899 178.165 253.817 176.859C253.747 175.832 253.714 174.798 253.716 173.759C253.74 156.984 262.385 140.903 277.755 129.041C293.125 117.18 313.965 110.509 335.702 110.49C337.758 110.49 339.801 110.549 341.82 110.666C341.889 110.671 341.952 110.675 342.021 110.68L342.021 109.702C341.952 109.697 341.889 109.697 341.819 109.692Z" fill="#3F3D56"/>
<path d="M403.369 125.96C428.938 126.297 428.934 155.648 403.368 155.982C377.799 155.645 377.803 126.294 403.369 125.96Z" fill="#B51D44"/>
<path d="M403.369 149.145C403.006 149.144 402.659 149.033 402.403 148.835C402.146 148.638 402.002 148.37 402.002 148.09V142.496C402.002 142.372 401.937 142.252 401.823 142.164C401.709 142.076 401.554 142.026 401.392 142.026H394.144C393.782 142.026 393.434 141.915 393.178 141.717C392.921 141.519 392.777 141.251 392.777 140.971C392.777 140.691 392.921 140.423 393.178 140.225C393.434 140.027 393.782 139.916 394.144 139.916H401.392C401.554 139.916 401.709 139.866 401.823 139.778C401.937 139.69 402.001 139.571 402.002 139.446V133.852C402.002 133.573 402.146 133.304 402.402 133.107C402.658 132.909 403.006 132.798 403.369 132.798C403.731 132.798 404.079 132.909 404.335 133.107C404.592 133.304 404.736 133.573 404.736 133.852V139.446C404.736 139.571 404.8 139.69 404.914 139.778C405.028 139.866 405.183 139.916 405.345 139.916H412.593C412.956 139.916 413.303 140.027 413.56 140.225C413.816 140.423 413.96 140.691 413.96 140.971C413.96 141.251 413.816 141.519 413.56 141.717C413.303 141.915 412.956 142.026 412.593 142.026H405.345C405.183 142.026 405.028 142.076 404.914 142.164C404.8 142.252 404.736 142.372 404.736 142.496V148.09C404.735 148.369 404.591 148.638 404.335 148.835C404.079 149.033 403.731 149.144 403.369 149.145Z" fill="white"/>
</g>
<defs>
<clipPath id="clip0_4_463">
<rect width="436" height="238" fill="white"/>
</clipPath>
</defs>
</svg>
