<svg width="436" height="238" viewBox="0 0 436 238" fill="none" xmlns="http://www.w3.org/2000/svg">
<g clip-path="url(#clip0_4_173)">
<path d="M378.477 236.439C378.518 236.314 382.558 223.809 375.408 212.65L374.678 213.118C381.6 223.92 377.694 236.044 377.654 236.165L378.477 236.439Z" fill="#E4E4E4"/>
<path d="M370.295 214.255C370.449 214.986 370.745 215.679 371.167 216.295C371.589 216.912 372.128 217.439 372.754 217.847C373.379 218.254 374.079 218.535 374.813 218.672C375.547 218.81 376.301 218.801 377.031 218.647C377.762 218.493 378.455 218.196 379.071 217.774C379.687 217.352 380.214 216.812 380.622 216.187C381.029 215.561 381.31 214.861 381.447 214.127C381.584 213.392 381.576 212.638 381.422 211.907C380.774 208.834 375.28 201.184 372.208 201.832C369.135 202.48 369.647 211.181 370.295 214.255Z" fill="#E4E4E4"/>
<path d="M371.331 228.631C374.073 231.595 378.979 231.515 378.979 231.515C378.979 231.515 379.438 226.628 376.696 223.664C373.954 220.7 369.049 220.78 369.049 220.78C369.049 220.78 368.589 225.667 371.331 228.631Z" fill="#E4E4E4"/>
<path d="M412.893 237.307C412.991 237.012 422.526 207.5 405.651 181.166L403.928 182.271C420.263 207.763 411.046 236.374 410.951 236.66L412.893 237.307Z" fill="#E4E4E4"/>
<path d="M393.585 184.953C394.32 188.436 396.408 191.484 399.389 193.427C402.37 195.37 406.001 196.049 409.482 195.314C412.964 194.58 416.011 192.492 417.954 189.51C419.897 186.528 420.576 182.896 419.843 179.413C418.314 172.16 405.35 154.107 398.099 155.637C390.848 157.166 392.056 177.699 393.585 184.953Z" fill="#E4E4E4"/>
<path d="M396.03 218.88C402.501 225.875 414.078 225.685 414.078 225.685C414.078 225.685 415.163 214.154 408.691 207.158C402.22 200.162 390.643 200.352 390.643 200.352C390.643 200.352 389.558 211.884 396.03 218.88Z" fill="#E4E4E4"/>
<path d="M251.523 235.085L245.196 232.42L240.855 200.69H183.056L178.352 232.29L172.691 235.122C172.42 235.257 172.203 235.48 172.075 235.754C171.946 236.029 171.914 236.338 171.984 236.633C172.054 236.928 172.221 237.191 172.458 237.379C172.695 237.567 172.989 237.669 173.292 237.669H251.001C251.312 237.669 251.613 237.562 251.853 237.365C252.093 237.168 252.258 236.895 252.319 236.59C252.38 236.286 252.335 235.97 252.19 235.696C252.044 235.421 251.809 235.205 251.523 235.085Z" fill="#E6E6E6"/>
<path d="M354.236 204.911H70.31C68.8203 204.908 67.3928 204.314 66.3406 203.259C65.2884 202.204 64.6975 200.774 64.6975 199.284V159.231H359.849V199.284C359.849 200.774 359.258 202.204 358.206 203.259C357.153 204.314 355.726 204.908 354.236 204.911Z" fill="#CCCCCC"/>
<path d="M360.145 178.161H64.4382V6.78355C64.4403 4.98504 65.1554 3.26079 66.4267 1.98907C67.698 0.717348 69.4216 0.00201588 71.2194 0H353.364C355.162 0.0020147 356.886 0.717343 358.157 1.98906C359.428 3.26078 360.143 4.98503 360.145 6.78355V178.161Z" fill="#3F3D56"/>
<path d="M342.486 12.4382H82.0987C80.7128 12.44 79.3842 12.9918 78.4046 13.9726C77.4251 14.9533 76.8746 16.2829 76.874 17.6693V160.492C76.8746 161.879 77.4251 163.208 78.4046 164.189C79.3842 165.17 80.7128 165.722 82.0987 165.723H342.486C343.871 165.721 345.2 165.169 346.179 164.188C347.158 163.208 347.709 161.879 347.711 160.492V17.6693C347.709 16.2831 347.158 14.954 346.179 13.9733C345.2 12.9927 343.871 12.4407 342.486 12.4382Z" fill="white"/>
<path d="M128.254 12.4382V165.723H82.0987C80.7128 165.722 79.3842 165.17 78.4046 164.189C77.4251 163.208 76.8746 161.879 76.874 160.492V17.6693C76.8746 16.2829 77.4251 14.9533 78.4046 13.9726C79.3842 12.9918 80.7128 12.44 82.0987 12.4382H128.254Z" fill="#F0F0F0"/>
<path d="M90.1767 89.8729C89.6571 89.7546 89.118 89.7517 88.5972 89.8644C88.0764 89.9771 87.5866 90.2026 87.1623 90.5251C86.7381 90.8477 86.3897 91.2593 86.1417 91.7311C85.8937 92.2029 85.7521 92.7233 85.7269 93.2558L73.3032 96.92L78.4463 101.263L89.4556 97.118C90.3525 97.1011 91.2121 96.7556 91.8715 96.147C92.5308 95.5384 92.9441 94.7089 93.033 93.8159C93.1219 92.9228 92.8802 92.0282 92.3537 91.3015C91.8273 90.5747 91.0527 90.0665 90.1767 89.8729Z" fill="#FFB6B6"/>
<path d="M39.979 117.449C38.7508 117.447 37.5631 117.009 36.6276 116.213C35.6921 115.417 35.0698 114.314 34.8715 113.102C34.6732 111.889 34.9118 110.645 35.5449 109.593C36.1779 108.54 37.1642 107.746 38.3279 107.353L63.5037 98.8511L83.142 91.6941L85.5519 100.133L68.2154 111.561L41.0626 117.335C40.7064 117.41 40.3432 117.449 39.979 117.449Z" fill="#B51D44"/>
<path d="M55.7338 233.704H59.2684L60.9503 220.065H55.7329L55.7338 233.704Z" fill="#FFB6B6"/>
<path d="M54.832 232.55L61.7934 232.55C62.9699 232.55 64.0986 233.017 64.9305 233.85C65.7625 234.682 66.2299 235.811 66.23 236.988V237.132L54.8322 237.132L54.832 232.55Z" fill="#2F2E41"/>
<path d="M28.631 233.704H32.1657L33.8475 220.065H28.6306L28.631 233.704Z" fill="#FFB6B6"/>
<path d="M27.7295 232.55L34.6908 232.55C35.8674 232.55 36.996 233.017 37.828 233.85C38.6599 234.682 39.1274 235.811 39.1274 236.988V237.132L27.7297 237.132L27.7295 232.55Z" fill="#2F2E41"/>
<path d="M28.5962 151.891C26.9785 155.661 26.6245 159.853 27.587 163.841L26.5779 231.5H34.3411L38.6876 194.292L45.8957 169.774L53.6805 188.811V228.487L61.1769 228.039L65.2135 185.927L60.6003 155.929L28.5962 151.891Z" fill="#2F2E41"/>
<path d="M56.9961 99.2514L50.3646 97.2324L48.6347 93.7711H40.1166L37.9666 97.5208C37.9666 97.5208 29.3169 100.694 29.0285 115.981C28.7402 131.268 27.5869 155.785 27.5869 155.785L61.6933 160.649L56.9961 99.2514Z" fill="#B51D44"/>
<path d="M66.7877 157.912C67.0114 157.428 67.1264 156.901 67.1245 156.368C67.1226 155.835 67.0039 155.309 66.7768 154.827C66.5496 154.344 66.2195 153.918 65.8098 153.577C65.4001 153.236 64.9206 152.99 64.4052 152.854L63.4055 139.936L58.0894 144.065L59.8537 155.7C59.6838 156.581 59.8429 157.494 60.3009 158.266C60.7589 159.037 61.4839 159.614 62.3387 159.887C63.1934 160.16 64.1183 160.109 64.9383 159.745C65.7583 159.381 66.4164 158.729 66.7877 157.912Z" fill="#FFB6B6"/>
<path d="M57.7173 151.253L50.1477 131.913V104.143C50.1477 102.82 50.6531 101.547 51.5605 100.585C52.468 99.6233 53.7087 99.0446 55.0286 98.9679C56.3486 98.8911 57.648 99.322 58.6607 100.172C59.6735 101.023 60.3229 102.228 60.4761 103.542L63.5546 129.945L66.4695 150.649L57.7173 151.253Z" fill="#B51D44"/>
<path d="M46.0097 89.2812C50.711 89.2812 54.5221 85.4686 54.5221 80.7656C54.5221 76.0625 50.711 72.2499 46.0097 72.2499C41.3084 72.2499 37.4973 76.0625 37.4973 80.7656C37.4973 85.4686 41.3084 89.2812 46.0097 89.2812Z" fill="#FFB9B9"/>
<path d="M46.567 78.1769C46.1687 78.6884 45.6228 79.1501 45.5351 79.7925C45.4701 80.2685 45.678 80.7389 45.6978 81.2189C45.6994 81.7033 45.5163 82.17 45.1858 82.5241C44.8553 82.8781 44.4023 83.0928 43.9191 83.1243C43.5826 82.7007 43.0962 82.4224 42.5606 82.3471C42.294 82.3169 42.0247 82.3731 41.7924 82.5073C41.5601 82.6416 41.3769 82.8469 41.2699 83.093C41.0171 83.8074 41.6023 84.5331 41.6963 85.285C41.7088 85.8412 41.6189 86.395 41.431 86.9186C41.2153 87.7814 41.1577 88.6942 40.7792 89.4989C40.4008 90.3036 39.5594 90.9958 38.6884 90.818C37.956 90.6684 37.4604 89.9587 37.2555 89.2395C37.0507 88.5204 37.0599 87.7578 36.9117 87.0248C36.43 84.6432 34.3808 82.8786 33.5768 80.5857C32.5466 77.6477 33.7842 74.287 35.9171 72.0196C36.7794 71.0262 37.9051 70.2971 39.1641 69.9165C40.4933 69.5779 41.8986 69.8213 43.2625 69.6765C44.7211 69.5217 46.0921 68.9287 47.5096 68.5519C48.9272 68.175 50.5105 68.0331 51.7991 68.7342C52.6978 69.2231 53.3486 70.0663 54.186 70.6542C55.1459 71.3233 56.3097 71.6349 57.4754 71.535L56.0834 72.1437C56.6162 72.6329 57.2597 72.9854 57.9586 73.1711C57.3897 73.6222 56.6861 73.8693 55.9603 73.8729C56.1116 74.1458 56.3173 74.3847 56.5646 74.575C56.812 74.7652 57.0956 74.9027 57.3981 74.979C56.3412 75.4753 55.2191 75.9839 54.0568 75.8719C53.4875 75.8171 52.9434 75.6147 52.381 75.5105C51.1823 75.2884 49.9513 75.5186 48.7541 75.7483C48.1254 75.869 47.3538 75.9848 47.0363 76.5895C46.7719 77.0931 46.9741 77.6542 46.567 78.1769Z" fill="#2F2E41"/>
<path d="M102.564 102.666C110.064 102.666 116.144 96.5838 116.144 89.0809C116.144 81.5779 110.064 75.4956 102.564 75.4956C95.0641 75.4956 88.9841 81.5779 88.9841 89.0809C88.9841 96.5838 95.0641 102.666 102.564 102.666Z" fill="#B51D44"/>
<path d="M110.712 89.081H103.379V81.7449H101.749V89.081H94.416V90.7111H101.749V98.0472H103.379V90.7111H110.712V89.081Z" fill="white"/>
<path d="M218.206 30.3666C217.787 30.367 217.385 30.5336 217.089 30.8299C216.793 31.1261 216.626 31.5278 216.626 31.9468V58.405C216.626 58.824 216.793 59.2257 217.089 59.522C217.385 59.8182 217.787 59.9849 218.206 59.9854H324.826C325.245 59.9849 325.646 59.8182 325.942 59.522C326.239 59.2257 326.405 58.824 326.406 58.405V31.9468C326.405 31.5278 326.239 31.1261 325.942 30.8299C325.646 30.5336 325.245 30.367 324.826 30.3666H218.206Z" fill="white"/>
<path d="M218.206 30.3666C217.787 30.367 217.385 30.5336 217.089 30.8299C216.793 31.1261 216.626 31.5278 216.626 31.9468V58.405C216.626 58.824 216.793 59.2257 217.089 59.522C217.385 59.8182 217.787 59.9849 218.206 59.9854H324.826C325.245 59.9849 325.646 59.8182 325.942 59.522C326.239 59.2257 326.405 58.824 326.406 58.405V31.9468C326.405 31.5278 326.239 31.1261 325.942 30.8299C325.646 30.5336 325.245 30.367 324.826 30.3666H218.206Z" fill="#E6E6E6"/>
<path d="M218.403 58.2077H324.629V32.1444H218.403V58.2077Z" fill="white"/>
<path d="M230.481 39.6454C230.114 39.6454 229.762 39.7911 229.503 40.0504C229.244 40.3096 229.098 40.6613 229.098 41.028C229.098 41.3947 229.244 41.7464 229.503 42.0057C229.762 42.265 230.114 42.4107 230.481 42.4107H312.547C312.729 42.4108 312.909 42.3751 313.076 42.3057C313.244 42.2363 313.396 42.1345 313.525 42.0061C313.653 41.8778 313.755 41.7254 313.825 41.5577C313.894 41.39 313.93 41.2102 313.93 41.0286C313.93 40.8471 313.895 40.6673 313.825 40.4995C313.756 40.3317 313.654 40.1792 313.526 40.0508C313.397 39.9223 313.245 39.8204 313.077 39.7509C312.91 39.6813 312.73 39.6455 312.549 39.6454H230.481Z" fill="#E4E4E4"/>
<path d="M230.48 47.9413C230.114 47.9419 229.763 48.0879 229.505 48.3471C229.246 48.6063 229.101 48.9577 229.101 49.3239C229.101 49.6902 229.246 50.0415 229.505 50.3007C229.763 50.56 230.114 50.7059 230.48 50.7066H312.547C312.914 50.7074 313.266 50.5625 313.526 50.3038C313.785 50.0451 313.932 49.6937 313.933 49.327C313.933 48.9603 313.789 48.6083 313.53 48.3484C313.271 48.0886 312.92 47.9421 312.554 47.9413H230.48Z" fill="#E4E4E4"/>
<path d="M144.062 75.2604C143.643 75.2608 143.242 75.4274 142.946 75.7237C142.649 76.0199 142.483 76.4216 142.482 76.8406V103.299C142.483 103.718 142.649 104.119 142.946 104.416C143.242 104.712 143.643 104.879 144.062 104.879H250.682C251.101 104.879 251.503 104.712 251.799 104.416C252.095 104.119 252.262 103.718 252.262 103.299V76.8406C252.262 76.4216 252.095 76.0199 251.799 75.7237C251.503 75.4274 251.101 75.2608 250.682 75.2604H144.062Z" fill="white"/>
<path d="M144.062 75.2604C143.643 75.2608 143.242 75.4274 142.946 75.7237C142.649 76.0199 142.483 76.4216 142.482 76.8406V103.299C142.483 103.718 142.649 104.119 142.946 104.416C143.242 104.712 143.643 104.879 144.062 104.879H250.682C251.101 104.879 251.503 104.712 251.799 104.416C252.095 104.119 252.262 103.718 252.262 103.299V76.8406C252.262 76.4216 252.095 76.0199 251.799 75.7237C251.503 75.4274 251.101 75.2608 250.682 75.2604H144.062Z" fill="#E6E6E6"/>
<path d="M144.26 103.101H250.485V77.0382H144.26V103.101Z" fill="white"/>
<path d="M156.337 84.5392C155.97 84.5392 155.619 84.6849 155.36 84.9442C155.1 85.2034 154.955 85.5551 154.955 85.9218C154.955 86.2885 155.1 86.6402 155.36 86.8995C155.619 87.1588 155.97 87.3045 156.337 87.3045H238.404C238.585 87.3046 238.765 87.2689 238.933 87.1995C239.1 87.1301 239.253 87.0283 239.381 86.8999C239.51 86.7716 239.612 86.6192 239.681 86.4515C239.751 86.2838 239.786 86.104 239.787 85.9224C239.787 85.7409 239.751 85.5611 239.682 85.3933C239.612 85.2255 239.51 85.073 239.382 84.9446C239.254 84.8161 239.102 84.7142 238.934 84.6447C238.766 84.5751 238.587 84.5393 238.405 84.5392H156.337Z" fill="#E4E4E4"/>
<path d="M156.337 92.8351C155.971 92.8357 155.62 92.9817 155.361 93.2409C155.103 93.5001 154.957 93.8515 154.957 94.2177C154.957 94.584 155.103 94.9353 155.361 95.1945C155.62 95.4538 155.971 95.5997 156.337 95.6004H238.404C238.77 95.6012 239.122 95.4563 239.382 95.1976C239.642 94.9389 239.788 94.5875 239.789 94.2208C239.79 93.8541 239.645 93.5021 239.386 93.2422C239.128 92.9824 238.777 92.8359 238.41 92.8351H156.337Z" fill="#E4E4E4"/>
<path d="M274.024 146.272C274.499 146.22 274.957 146.064 275.365 145.815C275.773 145.567 276.122 145.232 276.386 144.834C276.651 144.436 276.826 143.985 276.897 143.513C276.969 143.04 276.936 142.558 276.801 142.1L286.25 135.348L280.619 133.178L272.509 139.923C271.755 140.201 271.128 140.746 270.748 141.455C270.368 142.164 270.261 142.988 270.448 143.77C270.635 144.553 271.102 145.24 271.761 145.701C272.42 146.162 273.225 146.365 274.024 146.272Z" fill="#FFB7B7"/>
<path d="M279.27 141.825L276.136 136.469L276.202 136.393L288.85 121.989L298.67 105.236L307.197 106.323L307.323 108.901L307.297 108.94L293.75 129.313L293.735 129.326L279.27 141.825Z" fill="#3F3D56"/>
<path d="M321.058 232.456L316.236 232.456L313.941 213.848L321.059 213.849L321.058 232.456Z" fill="#FFB7B7"/>
<path d="M322.288 237.132L306.739 237.132V236.935C306.739 235.329 307.376 233.789 308.511 232.654C309.646 231.519 311.186 230.881 312.791 230.881L322.288 230.881L322.288 237.132Z" fill="#2F2E41"/>
<path d="M279.555 232.298L274.865 231.178L276.953 212.546L283.875 214.199L279.555 232.298Z" fill="#FFB7B7"/>
<path d="M279.666 237.133L264.542 233.52L264.587 233.328C264.96 231.767 265.938 230.417 267.305 229.576C268.673 228.735 270.318 228.473 271.88 228.845L281.117 231.052L279.666 237.133Z" fill="#2F2E41"/>
<path d="M298.297 96.7284V88.608C298.297 85.7221 299.443 82.9544 301.483 80.9138C303.523 78.8731 306.289 77.7267 309.174 77.7267C312.059 77.7267 314.825 78.8731 316.865 80.9138C318.905 82.9544 320.051 85.7221 320.051 88.608V96.7284C320.051 97.116 319.897 97.4875 319.623 97.7615C319.349 98.0356 318.977 98.1897 318.59 98.1901H299.758C299.371 98.1897 298.999 98.0356 298.725 97.7615C298.451 97.4875 298.297 97.116 298.297 96.7284Z" fill="#2F2E41"/>
<path d="M306.489 98.0667C310.894 98.0667 314.464 94.4949 314.464 90.0889C314.464 85.6829 310.894 82.1111 306.489 82.1111C302.085 82.1111 298.515 85.6829 298.515 90.0889C298.515 94.4949 302.085 98.0667 306.489 98.0667Z" fill="#FFB7B7"/>
<path d="M295.723 89.2576C295.726 86.9755 296.633 84.7877 298.246 83.174C299.859 81.5603 302.046 80.6526 304.328 80.65H305.951C308.232 80.6526 310.419 81.5603 312.032 83.174C313.646 84.7877 314.553 86.9756 314.555 89.2576V89.4201H311.125L309.954 86.1421L309.72 89.4201H307.947L307.357 87.7661L307.239 89.4201H295.723V89.2576Z" fill="#2F2E41"/>
<path d="M311.141 132.195L290.836 131.422L289.701 118.133C288.826 115.701 288.811 113.612 289.659 111.926C290.388 110.541 291.612 109.482 293.088 108.961L297.531 103.593C298.103 102.903 298.82 102.348 299.632 101.969C300.445 101.591 301.331 101.397 302.227 101.403L313.77 101.482C314.048 101.315 315.736 100.457 319.065 101.9C322.675 103.466 321.837 108.904 321.828 108.959L321.82 109.01L321.78 109.043L314.101 115.512L311.141 132.195Z" fill="#3F3D56"/>
<path d="M290.998 129.994L281.393 147.512L274.112 227.209L282.339 229.723L296.902 167.379L313.803 227.954L323.665 228.201L316.95 158.297L311.082 131.232L290.998 129.994Z" fill="#2F2E41"/>
<path d="M228.837 117.009C228.439 116.88 228.005 116.915 227.632 117.106C227.259 117.296 226.977 117.627 226.848 118.025L218.692 143.194C218.563 143.593 218.598 144.026 218.788 144.399C218.978 144.773 219.309 145.055 219.707 145.185L321.132 178.076C321.53 178.205 321.964 178.17 322.337 177.979C322.71 177.789 322.992 177.458 323.121 177.06L331.277 151.891C331.406 151.492 331.371 151.059 331.181 150.686C330.991 150.312 330.66 150.03 330.262 149.9L228.837 117.009Z" fill="white"/>
<path d="M228.837 117.009C228.439 116.88 228.005 116.915 227.632 117.106C227.259 117.296 226.977 117.627 226.848 118.025L218.692 143.194C218.563 143.593 218.598 144.026 218.788 144.399C218.978 144.773 219.309 145.055 219.707 145.185L321.132 178.076C321.53 178.205 321.964 178.17 322.337 177.979C322.71 177.789 322.992 177.458 323.121 177.06L331.277 151.891C331.406 151.492 331.371 151.059 331.181 150.686C330.991 150.312 330.66 150.03 330.262 149.9L228.837 117.009Z" fill="#E6E6E6"/>
<path d="M220.443 143.554L321.492 176.324L329.526 151.531L228.477 118.761L220.443 143.554Z" fill="white"/>
<path d="M237.654 129.622C237.305 129.51 236.926 129.54 236.6 129.707C236.273 129.873 236.027 130.163 235.914 130.512C235.801 130.86 235.831 131.24 235.997 131.566C236.164 131.893 236.453 132.14 236.801 132.253L314.869 157.57C315.042 157.626 315.224 157.648 315.405 157.634C315.586 157.619 315.762 157.57 315.924 157.487C316.086 157.405 316.23 157.291 316.348 157.153C316.466 157.015 316.556 156.855 316.612 156.682C316.668 156.509 316.689 156.327 316.675 156.146C316.661 155.965 316.611 155.788 316.528 155.626C316.446 155.465 316.332 155.321 316.194 155.203C316.055 155.085 315.895 154.995 315.722 154.94L315.721 154.939L237.654 129.622Z" fill="#B51D44"/>
<path d="M235.097 137.514C234.748 137.402 234.369 137.433 234.044 137.599C233.718 137.766 233.471 138.056 233.358 138.404C233.245 138.752 233.275 139.131 233.441 139.458C233.608 139.784 233.896 140.031 234.244 140.145L312.312 165.461C312.66 165.575 313.04 165.546 313.366 165.38C313.693 165.214 313.941 164.925 314.055 164.576C314.168 164.228 314.139 163.848 313.973 163.521C313.807 163.194 313.518 162.947 313.17 162.833L313.164 162.831L235.097 137.514Z" fill="#B51D44"/>
<path d="M316.658 158.354C317.014 158.035 317.295 157.641 317.482 157.202C317.669 156.762 317.757 156.287 317.741 155.809C317.725 155.331 317.604 154.863 317.387 154.437C317.17 154.011 316.863 153.638 316.486 153.344L320.236 142.35L314.395 143.868L311.73 154.076C311.278 154.741 311.086 155.55 311.19 156.347C311.294 157.145 311.687 157.877 312.294 158.404C312.902 158.932 313.682 159.218 314.486 159.209C315.29 159.199 316.063 158.895 316.658 158.354Z" fill="#FFB7B7"/>
<path d="M318.333 151.682L312.667 149.155L314.571 129.976L312.799 110.637L320.363 106.552L321.967 108.574L321.968 108.62L322.818 133.075L322.813 133.094L318.333 151.682Z" fill="#3F3D56"/>
<path d="M435.338 238H139.003C138.853 238.003 138.707 237.957 138.586 237.868C138.465 237.779 138.377 237.652 138.336 237.508C138.31 237.41 138.307 237.307 138.327 237.208C138.347 237.109 138.39 237.015 138.452 236.935C138.513 236.854 138.593 236.789 138.684 236.744C138.775 236.699 138.875 236.676 138.976 236.676H435.284C435.442 236.67 435.597 236.719 435.725 236.813C435.852 236.907 435.944 237.041 435.985 237.194C436.006 237.291 436.006 237.391 435.983 237.488C435.961 237.584 435.917 237.675 435.855 237.752C435.793 237.829 435.714 237.892 435.625 237.935C435.535 237.978 435.437 238 435.338 238Z" fill="#CCCCCC"/>
<path d="M99.7409 238H0.688504C0.538625 238.003 0.391903 237.957 0.271198 237.868C0.150494 237.779 0.0625856 237.652 0.0211719 237.508C-0.00468313 237.41 -0.0076925 237.307 0.0123726 237.208C0.0324377 237.109 0.0750409 237.015 0.136909 236.935C0.198778 236.854 0.27826 236.789 0.369238 236.744C0.460216 236.699 0.560267 236.676 0.66169 236.676H99.6867C99.8448 236.67 100 236.719 100.127 236.813C100.255 236.907 100.346 237.041 100.387 237.194C100.409 237.291 100.408 237.391 100.386 237.488C100.363 237.584 100.319 237.675 100.257 237.752C100.195 237.829 100.117 237.892 100.027 237.935C99.938 237.978 99.8401 238 99.7409 238Z" fill="#CCCCCC"/>
</g>
<defs>
<clipPath id="clip0_4_173">
<rect width="436" height="238" fill="white"/>
</clipPath>
</defs>
</svg>
