<svg width="13" height="13" viewBox="0 0 13 13" fill="none" xmlns="http://www.w3.org/2000/svg">
<path d="M3.92321 0.428506L3.71429 0.774701H0.928571C0.414955 0.774701 0 1.12089 0 1.5494C0 1.97791 0.414955 2.3241 0.928571 2.3241H12.0714C12.585 2.3241 13 1.97791 13 1.5494C13 1.12089 12.585 0.774701 12.0714 0.774701H9.28571L9.07679 0.428506C8.92009 0.164624 8.59799 0 8.24687 0H4.75313C4.40201 0 4.07991 0.164624 3.92321 0.428506ZM12.0714 3.0988H0.928571L1.54375 11.3058C1.59018 11.9183 2.19955 12.3952 2.93371 12.3952H10.0663C10.8004 12.3952 11.4098 11.9183 11.4562 11.3058L12.0714 3.0988Z" fill="white"/>
</svg>
